<svg xmlns="http://www.w3.org/2000/svg" viewBox="0 0 24 24" fill="none">
  <path d="M12 2C10.5 4.5 7 8 7 12.5C7 15.5 9.2 18 12 18C14.8 18 17 15.5 17 12.5C17 8 13.5 4.5 12 2Z" fill="#EF4444" opacity="0.9"/>
  <path d="M12 5C11 6.8 9 9.5 9 12.5C9 14.4 10.3 16 12 16C13.7 16 15 14.4 15 12.5C15 9.5 13 6.8 12 5Z" fill="#F97316" opacity="0.7"/>
  <path d="M12 9C11.3 10.2 10.5 11.5 10.5 13C10.5 14.1 11.2 15 12 15C12.8 15 13.5 14.1 13.5 13C13.5 11.5 12.7 10.2 12 9Z" fill="#FCD34D" opacity="0.9"/>
  <path d="M14 19H10C10 19 9 22 12 22C15 22 14 19 14 19Z" fill="#9CA3AF" opacity="0.5"/>
  <line x1="10" y1="20" x2="14" y2="20" stroke="#9CA3AF" stroke-width="0.8" opacity="0.5"/>
  <line x1="10.5" y1="21" x2="13.5" y2="21" stroke="#9CA3AF" stroke-width="0.8" opacity="0.5"/>
</svg>
