<svg xmlns="http://www.w3.org/2000/svg" viewBox="0 0 24 24" fill="none">
  <path d="M17 3L14.5 6.5H18L13 13L15 9H11.5L15 3H17Z" fill="#3B82F6" opacity="0.25"/>
  <circle cx="8" cy="16" r="1.2" fill="#3B82F6" opacity="0.5"/>
  <circle cx="12" cy="18" r="1.5" fill="#3B82F6" opacity="0.6"/>
  <circle cx="16" cy="16.5" r="1" fill="#3B82F6" opacity="0.45"/>
  <circle cx="6" cy="19" r="0.8" fill="#3B82F6" opacity="0.4"/>
  <circle cx="14" cy="21" r="1.3" fill="#3B82F6" opacity="0.55"/>
  <circle cx="10" cy="20.5" r="1" fill="#3B82F6" opacity="0.5"/>
  <circle cx="18" cy="19.5" r="0.9" fill="#3B82F6" opacity="0.4"/>
  <path d="M6 10C6 10 7 7 9.5 7C10.8 7 11 8.5 12.5 8.5C14 8.5 14 7 15.5 7C18 7 19 10 19 10" stroke="#3B82F6" stroke-width="1.5" stroke-linecap="round" fill="none" opacity="0.7"/>
  <path d="M5 13C5 13 6 10.5 8.5 10.5C9.8 10.5 10 12 11.5 12C13 12 13 10.5 14.5 10.5C17 10.5 18 13 18 13" stroke="#3B82F6" stroke-width="1.5" stroke-linecap="round" fill="none" opacity="0.5"/>
</svg>
